<svg aria-roledescription="xychart" role="graphics-document document" viewBox="0 0 700 500" style="max-width: 700px; background-color: white;" xmlns:xlink="http://www.w3.org/1999/xlink" xmlns="http://www.w3.org/2000/svg" width="100%" id="my-svg"><style>#my-svg{font-family:"trebuchet ms",verdana,arial,sans-serif;font-size:16px;fill:#ccc;}#my-svg .error-icon{fill:#a44141;}#my-svg .error-text{fill:#ddd;stroke:#ddd;}#my-svg .edge-thickness-normal{stroke-width:1px;}#my-svg .edge-thickness-thick{stroke-width:3.5px;}#my-svg .edge-pattern-solid{stroke-dasharray:0;}#my-svg .edge-thickness-invisible{stroke-width:0;fill:none;}#my-svg .edge-pattern-dashed{stroke-dasharray:3;}#my-svg .edge-pattern-dotted{stroke-dasharray:2;}#my-svg .marker{fill:lightgrey;stroke:lightgrey;}#my-svg .marker.cross{stroke:lightgrey;}#my-svg svg{font-family:"trebuchet ms",verdana,arial,sans-serif;font-size:16px;}#my-svg p{margin:0;}#my-svg :root{--mermaid-font-family:"trebuchet ms",verdana,arial,sans-serif;}</style><g/><g class="main"><rect fill="#333" class="background" height="500" width="700"/><g class="chart-title"><text transform="translate(350, 21.55078125) rotate(0)" text-anchor="middle" dominant-baseline="middle" font-size="20" fill="#e0dfdf" y="0" x="0">Git Commits by Hour</text></g><g class="plot"><g class="bar-plot-0"><rect stroke-width="0" stroke="#3498db" fill="#3498db" height="197.99562741312747" width="15.2" y="269.00437258687253" x="75.77500190734864"/><rect stroke-width="0" stroke="#3498db" fill="#3498db" height="140.03940154440153" width="15.2" y="326.9605984555985" x="102.23695834615957"/><rect stroke-width="0" stroke="#3498db" fill="#3498db" height="101.1709326737452" width="15.2" y="365.8290673262548" x="128.6989147849705"/><rect stroke-width="0" stroke="#3498db" fill="#3498db" height="58.01874276061778" width="15.2" y="408.9812572393822" x="155.1608712237814"/><rect stroke-width="0" stroke="#3498db" fill="#3498db" height="61.29452944015446" width="15.2" y="405.70547055984554" x="181.62282766259236"/><rect stroke-width="0" stroke="#3498db" fill="#3498db" height="22.867031853281844" width="15.2" y="444.13296814671816" x="208.0847841014033"/><rect stroke-width="0" stroke="#3498db" fill="#3498db" height="8" width="15.2" y="459" x="234.54674054021422"/><rect stroke-width="0" stroke="#3498db" fill="#3498db" height="9.826881032818562" width="15.2" y="457.17311896718144" x="261.0086969790251"/><rect stroke-width="0" stroke="#3498db" fill="#3498db" height="15.685499517374524" width="15.2" y="451.3145004826255" x="287.47065341783605"/><rect stroke-width="0" stroke="#3498db" fill="#3498db" height="101.10793677606176" width="15.2" y="365.89206322393824" x="313.932609856647"/><rect stroke-width="0" stroke="#3498db" fill="#3498db" height="270.314917953668" width="15.2" y="196.685082046332" x="340.39456629545793"/><rect stroke-width="0" stroke="#3498db" fill="#3498db" height="302.82080115830115" width="15.2" y="164.17919884169885" x="366.8565227342688"/><rect stroke-width="0" stroke="#3498db" fill="#3498db" height="318.25479609073363" width="15.2" y="148.7452039092664" x="393.31847917307977"/><rect stroke-width="0" stroke="#3498db" fill="#3498db" height="240.32887065637064" width="15.2" y="226.67112934362936" x="419.7804356118907"/><rect stroke-width="0" stroke="#3498db" fill="#3498db" height="324.49138996139" width="15.2" y="142.50861003861002" x="446.2423920507016"/><rect stroke-width="0" stroke="#3498db" fill="#3498db" height="370.28940757722006" width="15.2" y="96.71059242277994" x="472.70434848951254"/><rect stroke-width="0" stroke="#3498db" fill="#3498db" height="387.73927123552124" width="15.2" y="79.26072876447877" x="499.1663049283235"/><rect stroke-width="0" stroke="#3498db" fill="#3498db" height="415.8984375" width="15.2" y="51.1015625" x="525.6282613671344"/><rect stroke-width="0" stroke="#3498db" fill="#3498db" height="393.723881515444" width="15.2" y="73.276118484556" x="552.0902178059454"/><rect stroke-width="0" stroke="#3498db" fill="#3498db" height="389.9441276544402" width="15.2" y="77.05587234555983" x="578.5521742447562"/><rect stroke-width="0" stroke="#3498db" fill="#3498db" height="174.49815757722013" width="15.2" y="292.5018424227799" x="605.0141306835673"/><rect stroke-width="0" stroke="#3498db" fill="#3498db" height="231.4464490830116" width="15.2" y="235.5535509169884" x="631.4760871223781"/><rect stroke-width="0" stroke="#3498db" fill="#3498db" height="196.73570945945943" width="15.2" y="270.26429054054057" x="657.938043561189"/><rect stroke-width="0" stroke="#3498db" fill="#3498db" height="252.7390625" width="15.2" y="214.2609375" x="684.4"/></g></g><g class="bottom-axis"><g class="axis-line"><path stroke-width="2" stroke="#e0dfdf" fill="none" d="M 75.37500190734863,468 L 700,468"/></g><g class="label"><text transform="translate(83.37500190734863, 479) rotate(0)" text-anchor="middle" dominant-baseline="text-before-edge" font-size="14" fill="#e0dfdf" y="0" x="0">00</text><text transform="translate(109.83695834615956, 479) rotate(0)" text-anchor="middle" dominant-baseline="text-before-edge" font-size="14" fill="#e0dfdf" y="0" x="0">01</text><text transform="translate(136.2989147849705, 479) rotate(0)" text-anchor="middle" dominant-baseline="text-before-edge" font-size="14" fill="#e0dfdf" y="0" x="0">02</text><text transform="translate(162.7608712237814, 479) rotate(0)" text-anchor="middle" dominant-baseline="text-before-edge" font-size="14" fill="#e0dfdf" y="0" x="0">03</text><text transform="translate(189.22282766259235, 479) rotate(0)" text-anchor="middle" dominant-baseline="text-before-edge" font-size="14" fill="#e0dfdf" y="0" x="0">04</text><text transform="translate(215.6847841014033, 479) rotate(0)" text-anchor="middle" dominant-baseline="text-before-edge" font-size="14" fill="#e0dfdf" y="0" x="0">05</text><text transform="translate(242.1467405402142, 479) rotate(0)" text-anchor="middle" dominant-baseline="text-before-edge" font-size="14" fill="#e0dfdf" y="0" x="0">06</text><text transform="translate(268.6086969790251, 479) rotate(0)" text-anchor="middle" dominant-baseline="text-before-edge" font-size="14" fill="#e0dfdf" y="0" x="0">07</text><text transform="translate(295.07065341783607, 479) rotate(0)" text-anchor="middle" dominant-baseline="text-before-edge" font-size="14" fill="#e0dfdf" y="0" x="0">08</text><text transform="translate(321.532609856647, 479) rotate(0)" text-anchor="middle" dominant-baseline="text-before-edge" font-size="14" fill="#e0dfdf" y="0" x="0">09</text><text transform="translate(347.99456629545796, 479) rotate(0)" text-anchor="middle" dominant-baseline="text-before-edge" font-size="14" fill="#e0dfdf" y="0" x="0">10</text><text transform="translate(374.45652273426884, 479) rotate(0)" text-anchor="middle" dominant-baseline="text-before-edge" font-size="14" fill="#e0dfdf" y="0" x="0">11</text><text transform="translate(400.9184791730798, 479) rotate(0)" text-anchor="middle" dominant-baseline="text-before-edge" font-size="14" fill="#e0dfdf" y="0" x="0">12</text><text transform="translate(427.38043561189073, 479) rotate(0)" text-anchor="middle" dominant-baseline="text-before-edge" font-size="14" fill="#e0dfdf" y="0" x="0">13</text><text transform="translate(453.8423920507016, 479) rotate(0)" text-anchor="middle" dominant-baseline="text-before-edge" font-size="14" fill="#e0dfdf" y="0" x="0">14</text><text transform="translate(480.30434848951256, 479) rotate(0)" text-anchor="middle" dominant-baseline="text-before-edge" font-size="14" fill="#e0dfdf" y="0" x="0">15</text><text transform="translate(506.7663049283235, 479) rotate(0)" text-anchor="middle" dominant-baseline="text-before-edge" font-size="14" fill="#e0dfdf" y="0" x="0">16</text><text transform="translate(533.2282613671345, 479) rotate(0)" text-anchor="middle" dominant-baseline="text-before-edge" font-size="14" fill="#e0dfdf" y="0" x="0">17</text><text transform="translate(559.6902178059454, 479) rotate(0)" text-anchor="middle" dominant-baseline="text-before-edge" font-size="14" fill="#e0dfdf" y="0" x="0">18</text><text transform="translate(586.1521742447562, 479) rotate(0)" text-anchor="middle" dominant-baseline="text-before-edge" font-size="14" fill="#e0dfdf" y="0" x="0">19</text><text transform="translate(612.6141306835673, 479) rotate(0)" text-anchor="middle" dominant-baseline="text-before-edge" font-size="14" fill="#e0dfdf" y="0" x="0">20</text><text transform="translate(639.0760871223781, 479) rotate(0)" text-anchor="middle" dominant-baseline="text-before-edge" font-size="14" fill="#e0dfdf" y="0" x="0">21</text><text transform="translate(665.538043561189, 479) rotate(0)" text-anchor="middle" dominant-baseline="text-before-edge" font-size="14" fill="#e0dfdf" y="0" x="0">22</text><text transform="translate(692, 479) rotate(0)" text-anchor="middle" dominant-baseline="text-before-edge" font-size="14" fill="#e0dfdf" y="0" x="0">23</text></g><g class="ticks"><path stroke-width="2" stroke="#e0dfdf" fill="none" d="M 83.37500190734863,469 L 83.37500190734863,474"/><path stroke-width="2" stroke="#e0dfdf" fill="none" d="M 109.83695834615956,469 L 109.83695834615956,474"/><path stroke-width="2" stroke="#e0dfdf" fill="none" d="M 136.2989147849705,469 L 136.2989147849705,474"/><path stroke-width="2" stroke="#e0dfdf" fill="none" d="M 162.7608712237814,469 L 162.7608712237814,474"/><path stroke-width="2" stroke="#e0dfdf" fill="none" d="M 189.22282766259235,469 L 189.22282766259235,474"/><path stroke-width="2" stroke="#e0dfdf" fill="none" d="M 215.6847841014033,469 L 215.6847841014033,474"/><path stroke-width="2" stroke="#e0dfdf" fill="none" d="M 242.1467405402142,469 L 242.1467405402142,474"/><path stroke-width="2" stroke="#e0dfdf" fill="none" d="M 268.6086969790251,469 L 268.6086969790251,474"/><path stroke-width="2" stroke="#e0dfdf" fill="none" d="M 295.07065341783607,469 L 295.07065341783607,474"/><path stroke-width="2" stroke="#e0dfdf" fill="none" d="M 321.532609856647,469 L 321.532609856647,474"/><path stroke-width="2" stroke="#e0dfdf" fill="none" d="M 347.99456629545796,469 L 347.99456629545796,474"/><path stroke-width="2" stroke="#e0dfdf" fill="none" d="M 374.45652273426884,469 L 374.45652273426884,474"/><path stroke-width="2" stroke="#e0dfdf" fill="none" d="M 400.9184791730798,469 L 400.9184791730798,474"/><path stroke-width="2" stroke="#e0dfdf" fill="none" d="M 427.38043561189073,469 L 427.38043561189073,474"/><path stroke-width="2" stroke="#e0dfdf" fill="none" d="M 453.8423920507016,469 L 453.8423920507016,474"/><path stroke-width="2" stroke="#e0dfdf" fill="none" d="M 480.30434848951256,469 L 480.30434848951256,474"/><path stroke-width="2" stroke="#e0dfdf" fill="none" d="M 506.7663049283235,469 L 506.7663049283235,474"/><path stroke-width="2" stroke="#e0dfdf" fill="none" d="M 533.2282613671345,469 L 533.2282613671345,474"/><path stroke-width="2" stroke="#e0dfdf" fill="none" d="M 559.6902178059454,469 L 559.6902178059454,474"/><path stroke-width="2" stroke="#e0dfdf" fill="none" d="M 586.1521742447562,469 L 586.1521742447562,474"/><path stroke-width="2" stroke="#e0dfdf" fill="none" d="M 612.6141306835673,469 L 612.6141306835673,474"/><path stroke-width="2" stroke="#e0dfdf" fill="none" d="M 639.0760871223781,469 L 639.0760871223781,474"/><path stroke-width="2" stroke="#e0dfdf" fill="none" d="M 665.538043561189,469 L 665.538043561189,474"/><path stroke-width="2" stroke="#e0dfdf" fill="none" d="M 692,469 L 692,474"/></g></g><g class="left-axis"><g class="axisl-line"><path stroke-width="2" stroke="#e0dfdf" fill="none" d="M 74.37500190734863,43.1015625 L 74.37500190734863,467"/></g><g class="label"><text transform="translate(63.37500190734863, 57.0231768822394) rotate(0)" text-anchor="end" dominant-baseline="middle" font-size="14" fill="#e0dfdf" y="0" x="0">6500</text><text transform="translate(63.37500190734863, 88.52112572393823) rotate(0)" text-anchor="end" dominant-baseline="middle" font-size="14" fill="#e0dfdf" y="0" x="0">6000</text><text transform="translate(63.37500190734863, 120.01907456563706) rotate(0)" text-anchor="end" dominant-baseline="middle" font-size="14" fill="#e0dfdf" y="0" x="0">5500</text><text transform="translate(63.37500190734863, 151.51702340733593) rotate(0)" text-anchor="end" dominant-baseline="middle" font-size="14" fill="#e0dfdf" y="0" x="0">5000</text><text transform="translate(63.37500190734863, 183.01497224903474) rotate(0)" text-anchor="end" dominant-baseline="middle" font-size="14" fill="#e0dfdf" y="0" x="0">4500</text><text transform="translate(63.37500190734863, 214.51292109073358) rotate(0)" text-anchor="end" dominant-baseline="middle" font-size="14" fill="#e0dfdf" y="0" x="0">4000</text><text transform="translate(63.37500190734863, 246.01086993243243) rotate(0)" text-anchor="end" dominant-baseline="middle" font-size="14" fill="#e0dfdf" y="0" x="0">3500</text><text transform="translate(63.37500190734863, 277.50881877413127) rotate(0)" text-anchor="end" dominant-baseline="middle" font-size="14" fill="#e0dfdf" y="0" x="0">3000</text><text transform="translate(63.37500190734863, 309.0067676158301) rotate(0)" text-anchor="end" dominant-baseline="middle" font-size="14" fill="#e0dfdf" y="0" x="0">2500</text><text transform="translate(63.37500190734863, 340.50471645752896) rotate(0)" text-anchor="end" dominant-baseline="middle" font-size="14" fill="#e0dfdf" y="0" x="0">2000</text><text transform="translate(63.37500190734863, 372.00266529922783) rotate(0)" text-anchor="end" dominant-baseline="middle" font-size="14" fill="#e0dfdf" y="0" x="0">1500</text><text transform="translate(63.37500190734863, 403.50061414092664) rotate(0)" text-anchor="end" dominant-baseline="middle" font-size="14" fill="#e0dfdf" y="0" x="0">1000</text><text transform="translate(63.37500190734863, 434.99856298262546) rotate(0)" text-anchor="end" dominant-baseline="middle" font-size="14" fill="#e0dfdf" y="0" x="0">500</text></g><g class="ticks"><path stroke-width="2" stroke="#e0dfdf" fill="none" d="M 73.37500190734863,57.0231768822394 L 68.37500190734863,57.0231768822394"/><path stroke-width="2" stroke="#e0dfdf" fill="none" d="M 73.37500190734863,88.52112572393823 L 68.37500190734863,88.52112572393823"/><path stroke-width="2" stroke="#e0dfdf" fill="none" d="M 73.37500190734863,120.01907456563706 L 68.37500190734863,120.01907456563706"/><path stroke-width="2" stroke="#e0dfdf" fill="none" d="M 73.37500190734863,151.51702340733593 L 68.37500190734863,151.51702340733593"/><path stroke-width="2" stroke="#e0dfdf" fill="none" d="M 73.37500190734863,183.01497224903474 L 68.37500190734863,183.01497224903474"/><path stroke-width="2" stroke="#e0dfdf" fill="none" d="M 73.37500190734863,214.51292109073358 L 68.37500190734863,214.51292109073358"/><path stroke-width="2" stroke="#e0dfdf" fill="none" d="M 73.37500190734863,246.01086993243243 L 68.37500190734863,246.01086993243243"/><path stroke-width="2" stroke="#e0dfdf" fill="none" d="M 73.37500190734863,277.50881877413127 L 68.37500190734863,277.50881877413127"/><path stroke-width="2" stroke="#e0dfdf" fill="none" d="M 73.37500190734863,309.0067676158301 L 68.37500190734863,309.0067676158301"/><path stroke-width="2" stroke="#e0dfdf" fill="none" d="M 73.37500190734863,340.50471645752896 L 68.37500190734863,340.50471645752896"/><path stroke-width="2" stroke="#e0dfdf" fill="none" d="M 73.37500190734863,372.00266529922783 L 68.37500190734863,372.00266529922783"/><path stroke-width="2" stroke="#e0dfdf" fill="none" d="M 73.37500190734863,403.50061414092664 L 68.37500190734863,403.50061414092664"/><path stroke-width="2" stroke="#e0dfdf" fill="none" d="M 73.37500190734863,434.99856298262546 L 68.37500190734863,434.99856298262546"/></g><g class="title"><text transform="translate(5, 255.05078125) rotate(270)" text-anchor="middle" dominant-baseline="text-before-edge" font-size="16" fill="#e0dfdf" y="0" x="0">Commits</text></g></g></g><g class="mermaid-tmp-group"/></svg>