<svg aria-roledescription="xychart" role="graphics-document document" viewBox="0 0 700 500" style="max-width: 700px; background-color: white;" xmlns:xlink="http://www.w3.org/1999/xlink" xmlns="http://www.w3.org/2000/svg" width="100%" id="my-svg"><style>#my-svg{font-family:"trebuchet ms",verdana,arial,sans-serif;font-size:16px;fill:#ccc;}#my-svg .error-icon{fill:#a44141;}#my-svg .error-text{fill:#ddd;stroke:#ddd;}#my-svg .edge-thickness-normal{stroke-width:1px;}#my-svg .edge-thickness-thick{stroke-width:3.5px;}#my-svg .edge-pattern-solid{stroke-dasharray:0;}#my-svg .edge-thickness-invisible{stroke-width:0;fill:none;}#my-svg .edge-pattern-dashed{stroke-dasharray:3;}#my-svg .edge-pattern-dotted{stroke-dasharray:2;}#my-svg .marker{fill:lightgrey;stroke:lightgrey;}#my-svg .marker.cross{stroke:lightgrey;}#my-svg svg{font-family:"trebuchet ms",verdana,arial,sans-serif;font-size:16px;}#my-svg p{margin:0;}#my-svg :root{--mermaid-font-family:"trebuchet ms",verdana,arial,sans-serif;}</style><g/><g class="main"><rect fill="#333" class="background" height="500" width="700"/><g class="chart-title"><text transform="translate(350, 21.55078125) rotate(0)" text-anchor="middle" dominant-baseline="middle" font-size="20" fill="#e0dfdf" y="0" x="0">Git Commits per Month</text></g><g class="plot"><g class="bar-plot-0"><rect stroke-width="0" stroke="#3498db" fill="#3498db" height="275.756747840691" width="29.138281154632566" y="191.243252159309" x="78.06367383003234"/><rect stroke-width="0" stroke="#3498db" fill="#3498db" height="415.8984375" width="29.138281154632566" y="51.1015625" x="110.43954177962408"/><rect stroke-width="0" stroke="#3498db" fill="#3498db" height="69.85024292226484" width="29.138281154632566" y="397.14975707773516" x="142.81540972921582"/><rect stroke-width="0" stroke="#3498db" fill="#3498db" height="11.914572336852245" width="29.138281154632566" y="455.08542766314775" x="175.19127767880758"/><rect stroke-width="0" stroke="#3498db" fill="#3498db" height="8.78291446737046" width="29.138281154632566" y="458.21708553262954" x="207.56714562839932"/><rect stroke-width="0" stroke="#3498db" fill="#3498db" height="8.78291446737046" width="29.138281154632566" y="458.21708553262954" x="239.94301357799105"/><rect stroke-width="0" stroke="#3498db" fill="#3498db" height="10.348743402111381" width="29.138281154632566" y="456.6512565978886" x="272.31888152758285"/><rect stroke-width="0" stroke="#3498db" fill="#3498db" height="19.743717010556622" width="29.138281154632566" y="447.2562829894434" x="304.6947494771746"/><rect stroke-width="0" stroke="#3498db" fill="#3498db" height="10.348743402111381" width="29.138281154632566" y="456.6512565978886" x="337.0706174267663"/><rect stroke-width="0" stroke="#3498db" fill="#3498db" height="8" width="29.138281154632566" y="459" x="369.44648537635805"/><rect stroke-width="0" stroke="#3498db" fill="#3498db" height="11.914572336852245" width="29.138281154632566" y="455.08542766314775" x="401.8223533259498"/><rect stroke-width="0" stroke="#3498db" fill="#3498db" height="11.131657869481785" width="29.138281154632566" y="455.8683421305182" x="434.1982212755415"/><rect stroke-width="0" stroke="#3498db" fill="#3498db" height="9.565828934740864" width="29.138281154632566" y="457.43417106525914" x="466.5740892251333"/><rect stroke-width="0" stroke="#3498db" fill="#3498db" height="8" width="29.138281154632566" y="459" x="498.949957174725"/><rect stroke-width="0" stroke="#3498db" fill="#3498db" height="13.48040127159311" width="29.138281154632566" y="453.5195987284069" x="531.3258251243168"/><rect stroke-width="0" stroke="#3498db" fill="#3498db" height="30.70451955374284" width="29.138281154632566" y="436.29548044625716" x="563.7016930739086"/><rect stroke-width="0" stroke="#3498db" fill="#3498db" height="68.28441398752398" width="29.138281154632566" y="398.715586012476" x="596.0775610235003"/><rect stroke-width="0" stroke="#3498db" fill="#3498db" height="61.23818378119" width="29.138281154632566" y="405.76181621881" x="628.4534289730921"/><rect stroke-width="0" stroke="#3498db" fill="#3498db" height="45.57989443378119" width="29.138281154632566" y="421.4201055662188" x="660.8292969226837"/></g></g><g class="bottom-axis"><g class="axis-line"><path stroke-width="2" stroke="#e0dfdf" fill="none" d="M 68.03125190734863,468 L 700,468"/></g><g class="label"><text transform="translate(92.63281440734863, 479) rotate(0)" text-anchor="middle" dominant-baseline="text-before-edge" font-size="14" fill="#e0dfdf" y="0" x="0">2023-04</text><text transform="translate(125.00868235694037, 479) rotate(0)" text-anchor="middle" dominant-baseline="text-before-edge" font-size="14" fill="#e0dfdf" y="0" x="0">2023-05</text><text transform="translate(157.3845503065321, 479) rotate(0)" text-anchor="middle" dominant-baseline="text-before-edge" font-size="14" fill="#e0dfdf" y="0" x="0">2023-06</text><text transform="translate(189.76041825612387, 479) rotate(0)" text-anchor="middle" dominant-baseline="text-before-edge" font-size="14" fill="#e0dfdf" y="0" x="0">2023-07</text><text transform="translate(222.1362862057156, 479) rotate(0)" text-anchor="middle" dominant-baseline="text-before-edge" font-size="14" fill="#e0dfdf" y="0" x="0">2023-08</text><text transform="translate(254.51215415530734, 479) rotate(0)" text-anchor="middle" dominant-baseline="text-before-edge" font-size="14" fill="#e0dfdf" y="0" x="0">2023-09</text><text transform="translate(286.8880221048991, 479) rotate(0)" text-anchor="middle" dominant-baseline="text-before-edge" font-size="14" fill="#e0dfdf" y="0" x="0">2023-10</text><text transform="translate(319.26389005449084, 479) rotate(0)" text-anchor="middle" dominant-baseline="text-before-edge" font-size="14" fill="#e0dfdf" y="0" x="0">2023-11</text><text transform="translate(351.6397580040826, 479) rotate(0)" text-anchor="middle" dominant-baseline="text-before-edge" font-size="14" fill="#e0dfdf" y="0" x="0">2023-12</text><text transform="translate(384.0156259536743, 479) rotate(0)" text-anchor="middle" dominant-baseline="text-before-edge" font-size="14" fill="#e0dfdf" y="0" x="0">2024-01</text><text transform="translate(416.39149390326605, 479) rotate(0)" text-anchor="middle" dominant-baseline="text-before-edge" font-size="14" fill="#e0dfdf" y="0" x="0">2024-02</text><text transform="translate(448.7673618528578, 479) rotate(0)" text-anchor="middle" dominant-baseline="text-before-edge" font-size="14" fill="#e0dfdf" y="0" x="0">2024-03</text><text transform="translate(481.1432298024496, 479) rotate(0)" text-anchor="middle" dominant-baseline="text-before-edge" font-size="14" fill="#e0dfdf" y="0" x="0">2024-04</text><text transform="translate(513.5190977520413, 479) rotate(0)" text-anchor="middle" dominant-baseline="text-before-edge" font-size="14" fill="#e0dfdf" y="0" x="0">2024-05</text><text transform="translate(545.894965701633, 479) rotate(0)" text-anchor="middle" dominant-baseline="text-before-edge" font-size="14" fill="#e0dfdf" y="0" x="0">2024-06</text><text transform="translate(578.2708336512248, 479) rotate(0)" text-anchor="middle" dominant-baseline="text-before-edge" font-size="14" fill="#e0dfdf" y="0" x="0">2024-07</text><text transform="translate(610.6467016008165, 479) rotate(0)" text-anchor="middle" dominant-baseline="text-before-edge" font-size="14" fill="#e0dfdf" y="0" x="0">2024-08</text><text transform="translate(643.0225695504083, 479) rotate(0)" text-anchor="middle" dominant-baseline="text-before-edge" font-size="14" fill="#e0dfdf" y="0" x="0">2024-09</text><text transform="translate(675.3984375, 479) rotate(0)" text-anchor="middle" dominant-baseline="text-before-edge" font-size="14" fill="#e0dfdf" y="0" x="0">2024-10</text></g><g class="ticks"><path stroke-width="2" stroke="#e0dfdf" fill="none" d="M 92.63281440734863,469 L 92.63281440734863,474"/><path stroke-width="2" stroke="#e0dfdf" fill="none" d="M 125.00868235694037,469 L 125.00868235694037,474"/><path stroke-width="2" stroke="#e0dfdf" fill="none" d="M 157.3845503065321,469 L 157.3845503065321,474"/><path stroke-width="2" stroke="#e0dfdf" fill="none" d="M 189.76041825612387,469 L 189.76041825612387,474"/><path stroke-width="2" stroke="#e0dfdf" fill="none" d="M 222.1362862057156,469 L 222.1362862057156,474"/><path stroke-width="2" stroke="#e0dfdf" fill="none" d="M 254.51215415530734,469 L 254.51215415530734,474"/><path stroke-width="2" stroke="#e0dfdf" fill="none" d="M 286.8880221048991,469 L 286.8880221048991,474"/><path stroke-width="2" stroke="#e0dfdf" fill="none" d="M 319.26389005449084,469 L 319.26389005449084,474"/><path stroke-width="2" stroke="#e0dfdf" fill="none" d="M 351.6397580040826,469 L 351.6397580040826,474"/><path stroke-width="2" stroke="#e0dfdf" fill="none" d="M 384.0156259536743,469 L 384.0156259536743,474"/><path stroke-width="2" stroke="#e0dfdf" fill="none" d="M 416.39149390326605,469 L 416.39149390326605,474"/><path stroke-width="2" stroke="#e0dfdf" fill="none" d="M 448.7673618528578,469 L 448.7673618528578,474"/><path stroke-width="2" stroke="#e0dfdf" fill="none" d="M 481.1432298024496,469 L 481.1432298024496,474"/><path stroke-width="2" stroke="#e0dfdf" fill="none" d="M 513.5190977520413,469 L 513.5190977520413,474"/><path stroke-width="2" stroke="#e0dfdf" fill="none" d="M 545.894965701633,469 L 545.894965701633,474"/><path stroke-width="2" stroke="#e0dfdf" fill="none" d="M 578.2708336512248,469 L 578.2708336512248,474"/><path stroke-width="2" stroke="#e0dfdf" fill="none" d="M 610.6467016008165,469 L 610.6467016008165,474"/><path stroke-width="2" stroke="#e0dfdf" fill="none" d="M 643.0225695504083,469 L 643.0225695504083,474"/><path stroke-width="2" stroke="#e0dfdf" fill="none" d="M 675.3984375,469 L 675.3984375,474"/></g></g><g class="left-axis"><g class="axisl-line"><path stroke-width="2" stroke="#e0dfdf" fill="none" d="M 67.03125190734863,43.1015625 L 67.03125190734863,467"/></g><g class="label"><text transform="translate(56.03125190734863, 69.10859524952016) rotate(0)" text-anchor="end" dominant-baseline="middle" font-size="14" fill="#e0dfdf" y="0" x="0">500</text><text transform="translate(56.03125190734863, 108.25431861804222) rotate(0)" text-anchor="end" dominant-baseline="middle" font-size="14" fill="#e0dfdf" y="0" x="0">450</text><text transform="translate(56.03125190734863, 147.4000419865643) rotate(0)" text-anchor="end" dominant-baseline="middle" font-size="14" fill="#e0dfdf" y="0" x="0">400</text><text transform="translate(56.03125190734863, 186.54576535508636) rotate(0)" text-anchor="end" dominant-baseline="middle" font-size="14" fill="#e0dfdf" y="0" x="0">350</text><text transform="translate(56.03125190734863, 225.69148872360847) rotate(0)" text-anchor="end" dominant-baseline="middle" font-size="14" fill="#e0dfdf" y="0" x="0">300</text><text transform="translate(56.03125190734863, 264.8372120921305) rotate(0)" text-anchor="end" dominant-baseline="middle" font-size="14" fill="#e0dfdf" y="0" x="0">250</text><text transform="translate(56.03125190734863, 303.98293546065264) rotate(0)" text-anchor="end" dominant-baseline="middle" font-size="14" fill="#e0dfdf" y="0" x="0">200</text><text transform="translate(56.03125190734863, 343.12865882917464) rotate(0)" text-anchor="end" dominant-baseline="middle" font-size="14" fill="#e0dfdf" y="0" x="0">150</text><text transform="translate(56.03125190734863, 382.27438219769675) rotate(0)" text-anchor="end" dominant-baseline="middle" font-size="14" fill="#e0dfdf" y="0" x="0">100</text><text transform="translate(56.03125190734863, 421.4201055662188) rotate(0)" text-anchor="end" dominant-baseline="middle" font-size="14" fill="#e0dfdf" y="0" x="0">50</text></g><g class="ticks"><path stroke-width="2" stroke="#e0dfdf" fill="none" d="M 66.03125190734863,69.10859524952016 L 61.03125190734863,69.10859524952016"/><path stroke-width="2" stroke="#e0dfdf" fill="none" d="M 66.03125190734863,108.25431861804222 L 61.03125190734863,108.25431861804222"/><path stroke-width="2" stroke="#e0dfdf" fill="none" d="M 66.03125190734863,147.4000419865643 L 61.03125190734863,147.4000419865643"/><path stroke-width="2" stroke="#e0dfdf" fill="none" d="M 66.03125190734863,186.54576535508636 L 61.03125190734863,186.54576535508636"/><path stroke-width="2" stroke="#e0dfdf" fill="none" d="M 66.03125190734863,225.69148872360847 L 61.03125190734863,225.69148872360847"/><path stroke-width="2" stroke="#e0dfdf" fill="none" d="M 66.03125190734863,264.8372120921305 L 61.03125190734863,264.8372120921305"/><path stroke-width="2" stroke="#e0dfdf" fill="none" d="M 66.03125190734863,303.98293546065264 L 61.03125190734863,303.98293546065264"/><path stroke-width="2" stroke="#e0dfdf" fill="none" d="M 66.03125190734863,343.12865882917464 L 61.03125190734863,343.12865882917464"/><path stroke-width="2" stroke="#e0dfdf" fill="none" d="M 66.03125190734863,382.27438219769675 L 61.03125190734863,382.27438219769675"/><path stroke-width="2" stroke="#e0dfdf" fill="none" d="M 66.03125190734863,421.4201055662188 L 61.03125190734863,421.4201055662188"/></g><g class="title"><text transform="translate(5, 255.05078125) rotate(270)" text-anchor="middle" dominant-baseline="text-before-edge" font-size="16" fill="#e0dfdf" y="0" x="0">Number of Commits</text></g></g></g><g class="mermaid-tmp-group"/></svg>